<?xml version="1.0" standalone="no"?>
<!DOCTYPE svg PUBLIC "-//W3C//DTD SVG 20010904//EN"
 "http://www.w3.org/TR/2001/REC-SVG-20010904/DTD/svg10.dtd">
<svg version="1.0" xmlns="http://www.w3.org/2000/svg"
 width="200.000000pt" height="200.000000pt" viewBox="0 0 200.000000 200.000000"
 preserveAspectRatio="xMidYMid meet">

<g transform="translate(0.000000,200.000000) scale(0.100000,-0.100000)"
fill="#000000" stroke="none">
<path d="M284 1674 c-17 -8 -36 -26 -43 -40 -8 -17 -11 -166 -11 -494 l0 -470
28 -30 27 -30 290 -2 290 -3 3 -52 3 -53 -76 0 c-90 0 -134 -17 -171 -65 -31
-41 -43 -103 -23 -116 18 -11 780 -11 798 0 20 13 8 75 -23 116 -37 48 -81 65
-171 65 l-76 0 3 53 3 52 290 3 290 2 28 30 27 30 0 470 c0 329 -3 476 -11
494 -26 57 -16 56 -761 56 -594 0 -687 -2 -714 -16z m1420 -50 c14 -14 16 -60
14 -391 l-3 -375 -715 0 -715 0 -3 375 c-2 331 0 377 14 391 14 14 89 16 704
16 615 0 690 -2 704 -16z m16 -876 c0 -108 70 -98 -718 -98 -789 0 -722 -9
-722 97 l0 63 720 0 720 0 0 -62z m-635 -193 l0 -50 -85 0 -85 0 -2 40 c-2 66
-2 66 89 63 l83 -3 0 -50z m226 -128 c19 -12 35 -33 37 -45 l3 -22 -351 0
-351 0 3 22 c2 12 18 33 37 45 33 23 39 23 311 23 272 0 278 0 311 -23z"/>
</g>
</svg>
