<?xml version="1.0" standalone="no"?>
<!DOCTYPE svg PUBLIC "-//W3C//DTD SVG 20010904//EN"
 "http://www.w3.org/TR/2001/REC-SVG-20010904/DTD/svg10.dtd">
<svg version="1.0" xmlns="http://www.w3.org/2000/svg"
 width="255.000000pt" height="345.000000pt" viewBox="0 0 255.000000 345.000000"
 preserveAspectRatio="xMidYMid meet">

<g transform="translate(0.000000,345.000000) scale(0.100000,-0.100000)"
fill="#000000" stroke="none">
<path d="M117 3323 c-4 -3 -7 -703 -7 -1555 l0 -1549 440 1 441 2 128 -66 c71
-35 145 -68 165 -71 88 -17 306 44 392 110 l33 25 370 0 371 0 -2 1553 -3
1552 -1161 2 c-638 2 -1164 0 -1167 -4z m2283 -1548 l0 -1495 -314 0 -315 0
31 67 c24 51 33 84 36 144 4 63 -12 305 -32 512 l-4 37 164 0 c157 0 164 1
164 20 0 19 -7 20 -164 20 l-163 0 -7 77 c-3 42 -6 93 -6 115 l0 38 170 0
c165 0 170 1 170 21 0 20 -4 20 -172 18 l-173 -2 -7 54 c-20 165 -238 156
-238 -11 0 -29 -4 -40 -15 -40 -8 0 -15 3 -15 8 -1 22 -29 190 -35 205 -7 16
13 17 324 17 324 0 331 0 331 20 0 20 -7 20 -340 20 -298 0 -345 2 -373 17
-41 21 -108 21 -141 0 -23 -15 -69 -17 -431 -17 -400 0 -405 0 -405 -20 0 -20
4 -21 300 -18 165 2 300 2 300 1 0 0 -15 -10 -34 -21 -48 -28 -69 -74 -63
-131 2 -25 8 -53 11 -63 6 -14 -1 -17 -51 -20 -37 -3 -68 1 -87 10 -19 9 -43
12 -75 7 -25 -4 -103 -9 -173 -11 -118 -5 -128 -7 -128 -25 0 -18 8 -19 101
-19 100 0 100 0 92 -22 -16 -46 -8 -95 25 -148 18 -28 32 -54 32 -58 0 -4 -56
-6 -125 -4 -120 3 -125 2 -125 -17 0 -20 5 -21 139 -21 l138 0 106 -192 c58
-106 109 -205 112 -220 l7 -28 -56 25 c-85 37 -123 40 -176 13 -78 -40 -101
-126 -50 -191 11 -14 70 -56 130 -93 61 -37 112 -70 114 -73 2 -3 -162 -5
-365 -3 l-368 2 -3 1463 c-2 804 -1 1477 1 1495 l3 32 1114 0 1114 0 0 -1495z
m-1019 -185 c10 -6 25 -23 33 -38 13 -26 20 -61 66 -362 39 -255 60 -307 106
-269 13 11 15 48 12 255 -3 226 -2 244 16 263 24 26 60 27 85 2 23 -23 27 -54
41 -321 6 -107 20 -285 31 -395 22 -223 20 -268 -20 -352 -54 -112 -157 -184
-314 -218 -109 -24 -154 -17 -272 41 -129 64 -463 281 -471 306 -10 32 5 67
36 83 40 21 51 19 135 -16 81 -33 128 -35 133 -5 12 62 -22 136 -234 511 -80
140 -90 179 -54 215 11 11 33 20 50 20 34 0 25 13 231 -320 100 -161 120 -186
143 -177 24 10 20 46 -29 232 -112 424 -109 413 -95 440 16 30 52 42 89 29 30
-10 29 -9 136 -374 36 -124 70 -235 75 -247 11 -27 48 -31 57 -6 6 15 -25 262
-62 493 -26 162 -26 170 0 196 26 26 46 30 76 14z m-156 -62 c1 -24 4 -77 8
-118 7 -80 3 -74 -29 46 -8 29 -27 66 -43 83 l-29 31 46 0 47 0 0 -42z m-222
-321 c27 -92 29 -127 9 -127 -8 0 -94 136 -131 208 -12 23 -12 23 41 20 l53
-3 28 -98z m537 26 c0 -83 -5 -79 -14 10 -5 46 -3 67 4 62 5 -3 10 -36 10 -72z
m-283 30 c-3 -10 -5 -4 -5 12 0 17 2 24 5 18 2 -7 2 -21 0 -30z m-207 -232 c0
-5 3 -18 6 -28 5 -16 4 -16 -10 1 -18 23 -20 36 -6 36 6 0 10 -4 10 -9z"/>
<path d="M444 2695 c-3 -8 -3 -19 1 -25 4 -7 271 -10 846 -10 l839 0 0 25 0
25 -840 0 c-726 0 -841 -2 -846 -15z"/>
<path d="M440 2410 c0 -20 5 -20 847 -18 798 3 848 4 851 21 3 16 -42 17 -847
17 -845 0 -851 0 -851 -20z"/>
<path d="M440 2140 c0 -20 7 -20 845 -20 838 0 845 0 845 20 0 20 -7 20 -845
20 -838 0 -845 0 -845 -20z"/>
<path d="M440 1870 c0 -20 7 -20 845 -20 838 0 845 0 845 20 0 20 -7 20 -845
20 -838 0 -845 0 -845 -20z"/>
</g>
</svg>
