<?xml version="1.0" standalone="no"?>
<!DOCTYPE svg PUBLIC "-//W3C//DTD SVG 20010904//EN"
 "http://www.w3.org/TR/2001/REC-SVG-20010904/DTD/svg10.dtd">
<svg version="1.0" xmlns="http://www.w3.org/2000/svg"
 width="289.000000pt" height="278.000000pt" viewBox="0 0 289.000000 278.000000"
 preserveAspectRatio="xMidYMid meet">

<g transform="translate(0.000000,278.000000) scale(0.100000,-0.100000)"
fill="#000000" stroke="none">
<path d="M1300 2594 c-30 -25 -110 -78 -177 -118 -118 -70 -126 -77 -226 -197
-105 -126 -301 -321 -395 -394 -50 -39 -53 -43 -87 -155 -97 -313 -171 -526
-219 -632 l-54 -118 19 -72 c10 -40 28 -117 39 -170 l21 -96 -31 -91 c-38
-110 -48 -184 -30 -207 22 -26 79 -50 197 -83 182 -52 261 -57 435 -32 l148
21 53 -35 c34 -23 88 -44 152 -62 92 -24 116 -26 305 -27 l205 -1 95 34 c52
18 124 48 160 66 53 26 90 35 200 50 142 19 184 32 401 127 l116 51 42 213 43
214 -23 32 c-13 18 -60 83 -105 143 -105 142 -140 197 -164 262 -18 50 -118
475 -142 603 -18 103 -168 352 -319 533 -68 82 -85 97 -117 102 -20 4 -131 24
-245 46 -115 21 -216 39 -225 38 -10 0 -42 -21 -72 -45z m76 -39 c-31 -32 -13
-127 23 -120 11 2 32 -7 48 -21 15 -13 31 -24 36 -24 4 0 7 -4 7 -10 0 -5 -7
-6 -17 -3 -12 5 -14 3 -8 -7 6 -10 4 -12 -11 -6 -75 31 -72 26 49 -73 87 -72
118 -115 152 -212 16 -44 25 -28 -151 -261 -72 -95 -140 -186 -150 -203 l-19
-30 25 16 25 16 -5 -91 c-4 -65 -11 -100 -25 -123 -16 -28 -17 -37 -7 -66 7
-18 12 -44 12 -57 0 -20 -3 -22 -35 -17 -65 11 -106 60 -83 102 6 9 8 19 5 21
-8 9 -157 -70 -352 -186 -101 -60 -200 -116 -220 -124 -37 -16 -284 -60 -398
-72 l-67 -7 39 79 c59 122 109 264 192 549 23 77 43 141 44 143 2 2 31 -32 65
-75 76 -94 158 -180 185 -195 17 -10 16 -6 -6 23 -14 19 -68 92 -119 162 -78
109 -91 131 -79 142 127 120 301 255 331 255 7 1 70 -59 139 -131 l125 -132
132 28 c80 18 128 33 123 38 -8 8 -114 -6 -212 -29 -24 -5 -35 6 -138 146 -61
83 -121 154 -132 158 -18 7 -12 17 57 101 66 78 91 101 168 146 50 29 129 80
176 113 81 57 111 72 76 37z m181 -11 c29 -3 50 -11 50 -19 0 -19 -55 -16 -67
3 -8 12 -13 14 -16 5 -8 -18 -34 -16 -34 1 0 8 -8 17 -17 19 -19 4 0 3 84 -9z
m90 -20 c-3 -3 -12 -4 -19 -1 -8 3 -5 6 6 6 11 1 17 -2 13 -5z m150 -96 c-3
-8 -6 -5 -6 6 -1 11 2 17 5 13 3 -3 4 -12 1 -19z m-17 -88 c-8 -34 -8 -33 -9
15 0 34 3 45 9 35 4 -9 5 -31 0 -50z m-64 5 c-24 -18 -33 -19 -42 -3 -4 7 -3
8 4 4 7 -4 20 -2 29 3 26 15 31 13 9 -4z m39 -24 c-1 -21 2 -28 12 -24 7 3 13
0 13 -6 0 -16 -22 -13 -49 8 l-24 18 24 17 c13 9 24 16 25 16 0 0 0 -13 -1
-29z m-218 -566 c0 -8 -4 -12 -9 -9 -5 3 -6 10 -3 15 9 13 12 11 12 -6z m163
-46 c0 -6 -4 -7 -10 -4 -5 3 -10 11 -10 16 0 6 5 7 10 4 6 -3 10 -11 10 -16z
m173 -431 c-2 -5 -9 -8 -15 -8 -6 0 -8 3 -5 6 3 4 1 16 -5 28 l-11 21 20 -20
c11 -11 19 -23 16 -27z m-245 -25 c-10 -2 -28 -2 -40 0 -13 2 -5 4 17 4 22 1
32 -1 23 -4z m391 -196 c62 -89 90 -150 61 -132 -10 6 -12 4 -7 -8 3 -10 2
-17 -2 -17 -5 0 -11 7 -15 15 -3 8 -14 15 -24 15 -11 0 -25 7 -33 16 -10 12
-27 14 -77 11 l-64 -4 7 33 c3 18 16 57 29 86 12 29 26 61 29 70 10 29 29 12
96 -85z m111 -159 c13 -18 17 -27 8 -21 -8 7 -17 12 -19 10 -2 -1 -3 0 -2 2 1
2 -2 12 -8 22 -15 29 -5 23 21 -13z m50 -68 c0 -5 -2 -10 -4 -10 -3 0 -8 5
-11 10 -3 6 -1 10 4 10 6 0 11 -4 11 -10z m-1481 -87 c12 -32 46 -94 76 -138
30 -44 57 -92 60 -107 7 -25 3 -29 -70 -63 l-77 -37 -127 3 c-91 2 -143 -2
-186 -13 -92 -25 -139 -29 -158 -15 -16 11 -16 16 -2 72 35 135 117 262 187
289 55 23 217 65 249 66 23 0 29 -7 48 -57z m831 -175 c6 -7 32 -47 58 -88 26
-42 60 -92 75 -112 16 -21 26 -41 23 -46 -3 -5 -36 -12 -73 -16 -37 -4 -112
-21 -165 -37 -84 -26 -100 -28 -120 -17 -13 7 -26 18 -31 25 -21 33 -142 42
-226 17 -29 -8 -55 -13 -58 -10 -13 12 117 149 181 192 22 14 289 103 313 104
7 0 17 -6 23 -12z"/>
<path d="M901 1814 c-19 -8 -32 -17 -29 -20 7 -6 78 22 78 30 0 9 -12 7 -49
-10z"/>
<path d="M1901 1054 c0 -11 3 -14 6 -6 3 7 2 16 -1 19 -3 4 -6 -2 -5 -13z"/>
<path d="M1967 1019 c7 -7 15 -10 18 -7 3 3 -2 9 -12 12 -14 6 -15 5 -6 -5z"/>
<path d="M2015 989 c1 -11 10 -27 20 -37 19 -16 19 -16 3 3 -8 11 -13 25 -11
32 2 6 0 14 -5 17 -5 3 -8 -4 -7 -15z"/>
<path d="M2060 961 c0 -5 5 -13 10 -16 6 -3 10 -2 10 4 0 5 -4 13 -10 16 -5 3
-10 2 -10 -4z"/>
<path d="M504 702 c-9 -5 -8 -11 2 -20 12 -11 14 -9 14 8 0 22 0 23 -16 12z"/>
<path d="M572 570 c5 -16 56 -35 65 -26 10 10 -9 24 -41 32 -22 5 -28 4 -24
-6z"/>
<path d="M1390 381 c0 -9 41 -23 48 -16 2 2 1 8 -3 14 -8 13 -45 15 -45 2z"/>
</g>
</svg>
