<?xml version="1.0" standalone="no"?>
<!DOCTYPE svg PUBLIC "-//W3C//DTD SVG 20010904//EN"
 "http://www.w3.org/TR/2001/REC-SVG-20010904/DTD/svg10.dtd">
<svg version="1.0" xmlns="http://www.w3.org/2000/svg"
 width="290.000000pt" height="359.000000pt" viewBox="0 0 290.000000 359.000000"
 preserveAspectRatio="xMidYMid meet">

<g transform="translate(0.000000,359.000000) scale(0.100000,-0.100000)"
fill="#000000" stroke="none">
<path d="M2252 3433 c-10 -16 -65 -107 -122 -203 -57 -96 -126 -213 -155 -260
-100 -164 -412 -696 -455 -775 -24 -44 -52 -93 -63 -108 l-19 -28 -60 108
c-87 157 -216 376 -433 738 -356 592 -340 569 -375 527 -29 -35 -44 -97 -44
-187 l0 -80 237 -470 c130 -258 292 -578 359 -711 l122 -241 -58 -102 c-52
-93 -59 -101 -82 -95 -32 8 -45 -4 -98 -94 -50 -88 -98 -151 -139 -182 -27
-21 -29 -21 -90 -6 -151 38 -291 3 -425 -107 -264 -218 -316 -614 -105 -807
242 -221 638 -120 801 205 54 108 65 157 67 315 2 166 10 193 110 374 30 55
55 111 55 125 0 22 10 33 53 58 107 65 121 65 219 2 41 -27 48 -36 48 -64 0
-22 19 -66 56 -131 108 -186 108 -186 109 -374 1 -145 4 -172 23 -225 79 -210
235 -351 437 -392 186 -38 376 37 468 184 133 212 48 556 -182 734 -148 114
-275 146 -428 107 -80 -20 -120 14 -217 184 -51 91 -54 93 -88 92 -35 -1 -36
1 -88 98 l-52 99 22 52 c12 29 171 345 353 702 l332 650 -1 110 c0 118 -14
179 -44 195 -26 14 -26 14 -48 -17z m-1628 -100 c10 -21 136 -236 281 -478
144 -242 318 -534 385 -650 68 -115 161 -272 207 -348 46 -77 111 -186 143
-243 l59 -104 -33 -34 -33 -35 -49 33 c-28 19 -85 46 -127 61 -46 17 -81 36
-90 49 -7 11 -28 62 -46 111 -30 82 -192 406 -597 1202 -137 267 -144 284
-144 340 0 68 10 133 19 133 4 0 15 -17 25 -37z m1667 -65 l2 -95 -121 -234
c-67 -129 -224 -437 -349 -685 l-227 -451 -59 99 -58 99 42 77 c89 162 208
367 438 750 131 218 246 413 256 432 27 53 66 112 71 108 2 -2 4 -47 5 -100z
m-997 -1663 c10 -31 27 -62 42 -74 l25 -20 -23 -14 c-13 -8 -39 -23 -59 -34
l-37 -21 -30 31 -30 30 41 78 c23 43 45 79 48 79 3 0 13 -25 23 -55z m-180
-136 c-3 -5 -10 -7 -15 -3 -5 3 -7 10 -3 15 3 5 10 7 15 3 5 -3 7 -10 3 -15z
m669 7 c4 -10 -4 -18 -24 -25 -23 -8 -28 -7 -23 2 22 39 38 46 47 23z m-696
-36 c1 -11 -2 -20 -7 -20 -5 0 -15 -10 -21 -22 -11 -21 -11 -22 5 -9 9 8 18
12 21 10 6 -7 -49 -94 -62 -96 -15 -3 -25 25 -11 33 7 5 8 2 3 -6 -5 -8 -4
-11 3 -6 6 4 9 13 5 21 -3 8 0 15 6 15 6 0 10 3 9 8 -3 12 24 62 34 62 4 0 7
3 7 8 -2 10 0 22 4 22 1 0 3 -9 4 -20z m718 -9 c3 -5 2 -12 -3 -15 -5 -3 -9 1
-9 9 0 17 3 19 12 6z m-792 -144 c4 3 7 4 7 1 0 -3 -8 -12 -17 -19 -10 -7 -15
-9 -11 -5 4 5 2 16 -5 25 -10 14 -10 14 4 4 9 -7 19 -10 22 -6z m-67 -76 c-19
-21 -96 -51 -130 -51 -17 0 -18 2 -6 10 8 5 11 10 5 11 -15 2 57 20 87 22 20
2 24 5 16 14 -7 9 -7 13 1 13 6 0 11 -5 11 -11 0 -5 5 -7 11 -4 6 4 8 14 4 24
-5 13 -4 13 6 4 10 -10 9 -17 -5 -32z m1039 -7 c15 -13 25 -27 22 -30 -18 -18
-105 34 -92 55 8 13 38 3 70 -25z m356 -14 c6 0 8 -4 5 -9 -4 -5 2 -7 11 -5
23 6 127 -62 173 -113 19 -20 25 -30 14 -20 -12 10 -31 20 -44 22 -13 2 -30
11 -39 18 -9 8 -36 25 -61 38 -25 13 -51 30 -58 37 -7 6 -18 12 -23 12 -6 0
-8 4 -5 9 4 5 3 11 -1 14 -5 2 -2 2 5 0 8 -1 18 -3 23 -3z m-1827 -43 c-8 -5
-24 -5 -35 -2 -14 5 -19 3 -15 -3 3 -6 1 -14 -5 -17 -7 -5 -10 0 -7 11 3 14
11 18 33 17 17 -1 24 0 17 3 -6 3 -10 10 -7 15 4 5 12 3 19 -4 12 -10 12 -13
0 -20z m-74 -22 c0 -8 -4 -15 -10 -15 -5 0 -7 7 -4 15 4 8 8 15 10 15 2 0 4
-7 4 -15z m331 -83 c43 -23 59 -38 82 -82 27 -51 29 -62 25 -141 -3 -72 -9
-97 -36 -151 -105 -214 -356 -297 -476 -157 -131 153 -11 462 212 544 63 23
133 19 193 -13z m1536 6 c79 -29 172 -122 215 -214 61 -131 49 -265 -32 -338
-133 -120 -363 -30 -463 181 -28 60 -32 78 -32 153 0 69 4 93 22 127 56 103
165 138 290 91z m308 -98 c12 -24 13 -29 0 -34 -10 -3 -12 0 -8 11 5 12 3 14
-7 8 -10 -6 -12 -4 -7 10 4 9 2 25 -5 33 -10 13 -10 14 0 8 6 -4 19 -20 27
-36z m33 -58 c2 -7 -1 -12 -8 -12 -6 0 -9 4 -6 9 4 5 1 12 -4 14 -6 3 -5 4 2
3 6 -1 14 -8 16 -14z m-2458 -139 c-11 -17 -11 -17 -6 0 3 10 7 26 7 35 1 15
2 15 6 0 2 -10 -1 -25 -7 -35z"/>
<path d="M1410 1782 c-32 -26 -39 -93 -11 -121 62 -62 161 15 119 92 -25 48
-70 60 -108 29z m70 -32 c34 -34 20 -80 -25 -80 -28 0 -45 19 -45 50 0 49 36
64 70 30z"/>
<path d="M1450 1709 c0 -24 23 -21 28 4 2 10 -3 17 -12 17 -10 0 -16 -9 -16
-21z"/>
</g>
</svg>
